<?xml version="1.0" encoding="utf-8" standalone="no"?>
<svg xmlns="http://www.w3.org/2000/svg" xmlns:xlink="http://www.w3.org/1999/xlink" viewBox="0 0 310 310">
  <defs>
    <clipPath id="a">
      <path d="M157,9.39a145.4,145.4,0,1,1-145.4,145.4A145.4,145.4,0,0,1,157,9.39Z" style="fill:none;clip-rule:evenodd" />
    </clipPath>
    <clipPath id="b">
      <path d="M25.77,217.49H288.21a145.45,145.45,0,0,1-262.44,0Z" style="fill:none;clip-rule:evenodd" />
    </clipPath>
    <clipPath id="d">
      <path d="M157.2,24a131.64,131.64,0,0,1,126.59,95.54H30.62A131.63,131.63,0,0,1,157.2,24Z" style="fill:none;clip-rule:evenodd" />
    </clipPath>
  </defs>
  <title>ALCOSAN_LOGO_2019</title>
  <path d="M156.84,6.29c82.1,0,148.66,66.62,148.66,148.79S238.94,303.87,156.84,303.87,8.18,237.26,8.18,155.08,74.73,6.29,156.84,6.29Z" style="fill:#fefefe;stroke:#fefefe;stroke-miterlimit:2.613126039505005;stroke-width:1.9998400211334229px;fill-rule:evenodd" />
  <g style="clip-path:url(#a)">
    <path d="M301.16,217.49c-27.14,53.89-80.89,90.59-142.77,90.59S42.75,271.38,15.61,217.49Z" style="fill:#00669e;fill-rule:evenodd" />
  </g>
  <g style="clip-path:url(#b)">
    <path d="M120.8,228.09a47.49,47.49,0,0,1,4.81-.06c4,.07,9.39-.48,11.35-.61,0,0-1.23-.36-3.08-.73,1.57.12,3.41.21,5,.19a33.68,33.68,0,0,1,3.58,0l.56,0a10.24,10.24,0,0,0,1.29.17c2.68.12,7.15.35,7.15.35.78-.06,1.57-.09,2.24-.09-.06.09.22.16,1.06.23l4.64.21c1.17-.08,2.52,0,2.52,0,2.12,0,4.92-.25,5.92-.32a26.81,26.81,0,0,0-3.91-.71,40.08,40.08,0,0,0-8.44-1.13c-2.35.1-5.59.17-7,.21l-2.57-.3s-4.19-.1-7-.19a40.82,40.82,0,0,0-7.71.95,39.37,39.37,0,0,0-5-.39c-3.74.14-9.39.26-9.39.26s-4.64.54-4.47.49c-1,.39-3.86.75-.17,1.06,3.3.15,8.61.42,8.61.42Z" style="fill:#fefefe;fill-rule:evenodd" />
    <path d="M167.6,235s-2.91.33-2.8.3c-.56.24-2.35.46.17.64l5.76.27c1.5-.11,3.18-.05,3.18-.05,2.57.05,5.93-.29,7.21-.37a37.88,37.88,0,0,0-7.43-.95c-2.46.09-6.09.16-6.09.16Z" style="fill:#fefefe;fill-rule:evenodd" />
    <path d="M200.91,238.67s-3.07.36-3,.33c-.51.24-2.46.49.44.7,2.52.09,6.54.27,6.54.27,1.62-.11,3.53-.05,3.53-.05,3,.06,6.59-.31,7.93-.39a48.32,48.32,0,0,0-8.66-1c-2.74.09-6.77.17-6.77.17Z" style="fill:#fefefe;fill-rule:evenodd" />
    <path d="M193.85,223c-1.4,0-3.19-.08-4.59-.14a32.07,32.07,0,0,0-7.66,1.1c.84.06,2.58.23,4.42.34-.45.16-.45.33,1.4.49l7.1.33c1.79-.13,3.8-.05,3.8-.05,3.3.06,7.38-.39,8.89-.5l-.73-.18c1.85-.13,3.52-.3,4.42-.36a44.1,44.1,0,0,0-9.28-1.28c-3,.12-7.55.22-7.55.22l-.22,0Z" style="fill:#fefefe;fill-rule:evenodd" />
    <path d="M178.92,223.36c-3.63.14-9.11.26-9.11.26s-4.31.54-4.14.49c-.84.38-3.52.75.17,1.06l8.55.44c.56-.05,1.12-.08,1.68-.1l1.79.1c.56-.05,1.12-.06,1.68-.08h.83l.9,0c2.91.06,6.54-.35,7.94-.46h0a3.09,3.09,0,0,0-.34-.11l.95-.08a48.55,48.55,0,0,0-10.9-1.55Z" style="fill:#fefefe;fill-rule:evenodd" />
    <path d="M139,220.61c-.67.33-3,.64.11.91l4.47.22c-.89.27-1.67.53.95.75l8.22.42a41.64,41.64,0,0,1,4.42-.07c3.8.08,8.61-.45,10.51-.6,0,0-2-.56-4.75-1,2,.09,3.63.19,3.63.19a36.93,36.93,0,0,1,4.08-.06c3.47.06,7.88-.43,9.5-.55a40.55,40.55,0,0,0-9.61-1.4c-3.13.13-8,.24-8,.24s-3.74.48-3.63.44c-.45.22-1.62.43-1.51.63h-.11a3,3,0,0,0-.39,0,35.22,35.22,0,0,0-6.65-.78c-3.08.12-7.72.23-7.72.23s-3.63.45-3.52.41Z" style="fill:#fefefe;fill-rule:evenodd" />
    <path d="M199,234.94l-.62,0a16.47,16.47,0,0,0-4,.54c.79,0,2.85.24,4.42.21,0,0,.89,0,1.79,0l3.3-.15c.61,0,.72-.1.67-.15l6.93.3c2.46-.18,5.42-.07,5.42-.07,4.64.08,10.18-.51,12.36-.66l-1.68-.34c1.45-.08,2.63-.2,3.35-.25a41.65,41.65,0,0,0-7.49-.92h-.33c-.78-.07-1.57-.12-2.35-.12l-2.29.07c-.95-.06-1.85-.1-2.74-.1-4.19.14-10.51.27-10.51.27s-4.75.58-4.64.53c-.62.29-2.18.56-1.62.82Z" style="fill:#fefefe;fill-rule:evenodd" />
    <path d="M187.83,247.14s2-.07,3.75,0l6.76-.27c2.85-.19.56-.43-.28-.67.11,0-3.52-.32-3.52-.32s-3.19,0-6-.12a48.39,48.39,0,0,0-7.16-.68c-3,.09-7.43.18-7.43.18s-3.47.36-3.36.33c-.61.25-2.85.49.23.71,2.74.09,7.1.27,7.1.27.61,0,1.23-.06,1.79-.06l-.84.2c1.56.09,5.81.44,8.94.39Z" style="fill:#fefefe;fill-rule:evenodd" />
    <path d="M196.87,225.51l-1.51-.17s-2,0-3.3-.09a15.23,15.23,0,0,0-3.69.53,38.87,38.87,0,0,0,3.91.21s.84,0,1.68,0l3-.15c1.29-.11.28-.23,0-.36Z" style="fill:#fefefe;fill-rule:evenodd" />
    <path d="M146.63,237.85a22.65,22.65,0,0,1,2.35,0l4.25-.19c1.84-.14.5-.3.05-.47.06,0-2.12-.22-2.12-.22s-2.8,0-4.64-.1a25.93,25.93,0,0,0-5.42.68c1,.06,3.52.3,5.53.26Z" style="fill:#fefefe;fill-rule:evenodd" />
    <path d="M205.43,227s1.79-.07,3.41,0l6.27-.31c2.68-.23.61-.5-.06-.79.11,0-3.19-.37-3.19-.37s-4.08-.09-6.82-.19a30.72,30.72,0,0,0-7.77,1.16c1.46.1,5.26.51,8.16.45Z" style="fill:#fefefe;fill-rule:evenodd" />
    <path d="M88.39,277.25s3.92,0,7.3,0l13.49-.22c6-.16,1.64-.35.39-.55.16,0-6.51-.26-6.51-.26s-8.63-.06-14.28-.13c-8.63,0-17.41.8-17.41.8,3,.07,10.82.36,17,.32Z" style="fill:#fefefe;fill-rule:evenodd" />
    <path d="M239.24,279.47s2.35-.05,4.71,0l8.47-.15c3.45-.12.47-.25-.55-.4l-4.63-.18-9.33-.09a93.61,93.61,0,0,0-10,.57c2,.05,7.46.25,11.38.23Z" style="fill:#fefefe;fill-rule:evenodd" />
    <path d="M183.08,233.65c.06,0-1.68-.17-1.68-.17s-2.18,0-3.57-.09a17.51,17.51,0,0,0-4,.55c.78.05,2.74.24,4.3.2,0,0,.9,0,1.79,0l3.25-.16c1.39-.11.28-.24-.06-.37Z" style="fill:#fefefe;fill-rule:evenodd" />
    <path d="M179.45,241.16l.05,0h3.08c2.12,0,4.53-.12,6.43-.25l3.18.13c1-.07,2.18,0,2.18,0,1.79,0,4-.18,4.92-.24a31.3,31.3,0,0,0-5.25-.59l-4.2.1s-.27,0-.67.07l-.44-.07h0l.05,0h.73l.06,0h.72l.11,0H191l0,0h.79l0,0h0a58.37,58.37,0,0,0-10.67-1.29c-3.53.12-8.73.22-8.73.22s-4,.45-3.91.42c-.73.31-3.3.62.28.87l.9,0c-4,.13-9.51.22-9.51.22s-4.64.52-4.53.47c-.89.36-3.91.71.17,1l9.45.4c2.35-.17,5.09-.06,5.09-.06,4.3.07,9.72-.44,11.79-.58H182l-.06,0h-.17l0,0h-.34l-.05,0h-.23l-.05,0h-.23l-.05,0h-.34v0h-.33l-.06,0h-.22l-.06,0h-.33Z" style="fill:#fefefe;fill-rule:evenodd" />
    <path d="M169.22,236.94s-2.52.27-2.41.24c-.5.19-2.12.38.11.53l5,.21c1.28-.08,2.73,0,2.73,0,2.3,0,5.2-.24,6.32-.3a35.28,35.28,0,0,0-6.48-.78c-2.13.07-5.31.13-5.31.13Z" style="fill:#fefefe;fill-rule:evenodd" />
    <path d="M170.92,277.34c5-.16,10.82-.06,10.82-.06h5.33l.24,0h3.77l.15,0h3.14l.08,0H196l.23,0h1.89l.15,0h2.12l.24,0h.7l.08,0h2.9l.08,0h.71c-1.42.18-3.77.37,1.33.53s13.26.24,13.26.24c3.29-.1,7.06,0,7.06,0,6,.05,13.41-.28,16.16-.36,0,0-9-.86-17.18-.91-.32,0-.55-.06-.79-.08l-5.41-.24s-6.75-.05-11.3-.11H205.9l-.08,0h-1.64l-.08,0h-1.18l-.08,0h-1l-.08,0h-.31l-.31,0H201l-.16,0-.23,0h-.4l-.08,0h-.78v0h-.86l-.08,0H198l-.32,0-.15,0h-.08l-.31,0H197l-.24,0-.23,0h0l-.4,0h-.23l-.31,0h-.87l-.23,0h-.47l-.32,0-.23,0h-1l-.32,0h-.78l-.31,0h-1.26l-.16,0h-1.25l-.39,0h-1.73l-.08,0h-3.45l-.39,0h-2.2l-.08,0h-5.72l-.24,0h-5.65l-.15,0-.39,0h-.24l-.16,0h-.23l-.24,0h-.55l-.62-.05h0l-.4,0h-.39l-.39,0h-.08l-.23,0h-.16l-.16,0h-.31l-.24,0h-.23l-.24,0h-.63l-.31,0H162l-.31,0-.08,0h-.47l-.31,0-.24,0h-.08l-.31,0h-.24l-.31,0h-1v0h-1.1l-.39,0h0l-.31,0h-.4l-.15,0h-.39l-.32,0h-.63l-.31,0h-1l-.23,0H151.7l-.08,0h-1c.86,0,1.65-.06,2.2-.07,0,0-7-.79-14-.82-4.78.08-11.92.14-11.92.14s-5.65.28-5.57.26c-.16.05-.7.09-1.1.14L117.5,274s-9.26-.08-15.38-.18c-9.33,0-18.9,1-18.9,1,3.21.1,11.76.47,18.43.42,0,0,4.32-.07,8,0h.08c-2.82.33-7,.64,1.1.92l11.3.21c.39,0,.94.05,1.8.09l11.84.23c3.06-.1,6.52,0,6.52,0h4.62l.08,0h.71l-.08,0h1.1l.08,0h1.33l.08,0h.7c7.61.13,20,.37,20,.37Z" style="fill:#fefefe;fill-rule:evenodd" />
    <path d="M134.42,255c2,0,4.59-.17,5.54-.23a35.78,35.78,0,0,0-5.7-.55c-1.85,0-4.64.09-4.64.09s-2.18.2-2.18.18c-.34.14-1.74.27.16.39,1.68,0,4.42.14,4.42.14,1.12-.06,2.4,0,2.4,0Z" style="fill:#fefefe;fill-rule:evenodd" />
    <path d="M190.46,230.65c-.5.22-2.35.45.28.64l6,.27c1.45-.11,3.18,0,3.18,0,2.74,0,6-.3,7.38-.38a41.26,41.26,0,0,0-7.82-1c-2.46.09-6.26.17-6.26.17s-2.86.33-2.8.31Z" style="fill:#fefefe;fill-rule:evenodd" />
    <path d="M146,289.07h.44v0h1.35s-1.79-.18-4.25-.35h1.95l.12,0h2.51l.17,0h2l.23,0h1.9v0h1.84l.28,0h1.9l.06,0h.78l.06,0h.28s2.06-.06,4,.05l2.12-.07,1.57.07c-1.51.13-6.54.54-6.37.5-.51.16-1.4.3-2.07.45-2.8,0-6.21-.11-9-.17h-1.4v0h-.28v0H146Z" style="fill:#fefefe;fill-rule:evenodd" />
    <path d="M118.37,270.24c-4.15.06-10.59.12-10.59.12s-5,.25-4.94.23c-.86.18-4.08.34.24.49h2l-.08,0h-.16v0H105l-.08,0h.39l.08,0h.79v0h1.33l12,.25c3.06-.09,6.51,0,6.51,0,5.49.06,12.47-.28,15.14-.35,0,0-7.76-.89-15.37-.92h-3.22l-.16,0h-1.64v0h-2.36Z" style="fill:#fefefe;fill-rule:evenodd" />
    <path d="M181.46,230c1.9-.13,4,0,4,0,3.47.06,7.72-.37,9.4-.49a50.71,50.71,0,0,0-9.73-1.22c-3.13.11-7.83.21-7.83.21s-3.69.43-3.63.39c-.67.3-3,.59.28.84l7.49.32Z" style="fill:#fefefe;fill-rule:evenodd" />
    <path d="M152.87,273.45c-.7.13-3.13.26.16.37l7.69.14c2-.06,4.16,0,4.16,0,3.53,0,8-.17,9.72-.22,0,0-4.94-.51-9.88-.52l-8.16.08s-3.76.19-3.69.17Z" style="fill:#fefefe;fill-rule:evenodd" />
    <path d="M117.81,277.45h-1.25l-.08,0h-1.34l-.07,0h-1.26c-1.25.2-5.33.39-.08.55l12.32.23c3.21-.09,6.74-.05,6.74-.05,5.73.05,13-.24,15.77-.31,0,0-7.61-.8-15.45-.82h-3.77l-.23,0h-5.73l-.08,0h-1.49l.08,0h.16l.08,0h-.24v0h-.55l-.08,0h-.39v0h-.39l-3.85-.17s-5.09-.05-8.47-.1c-5,0-10.2.54-10.2.54,1.81.06,6.44.25,10.12.22,0,0,2.2,0,4.24,0h2.43l.16,0h2.9Z" style="fill:#fefefe;fill-rule:evenodd" />
    <path d="M70,283.06s-7.85.27-7.69.25c-1.57.2-6.67.4-.24.55l14.91.22c4-.09,8.31,0,8.31,0,6.9,0,16.08-.24,19.53-.31,0,0-9-.79-18.59-.8-6.51.07-16.23.13-16.23.13Z" style="fill:#fefefe;fill-rule:evenodd" />
    <path d="M196.78,233.09c2.34,0,5.25-.25,6.43-.34a36.9,36.9,0,0,0-6.82-.82c-2.18.07-5.48.14-5.48.14s-2.46.29-2.41.26c-.44.2-2,.4.28.57l5.2.22c1.29-.09,2.8,0,2.8,0Z" style="fill:#fefefe;fill-rule:evenodd" />
    <path d="M143.61,235.21s-4.36.45-4.25.42c-.83.32-3.63.63.06.91l8.5.35c2.18-.15,4.64,0,4.64,0,4,0,8.94-.41,10.84-.53A53.63,53.63,0,0,0,152.67,235c-3.63.12-9.06.23-9.06.23Z" style="fill:#fefefe;fill-rule:evenodd" />
    <path d="M164.46,243.69c-.28.14-1.51.25.12.36l3.69.15c.95-.06,1.95,0,1.95,0,1.68,0,3.8-.15,4.64-.2a25.42,25.42,0,0,0-4.69-.53c-1.57.05-3.92.09-3.92.09l-1.79.16Z" style="fill:#fefefe;fill-rule:evenodd" />
    <path d="M145.57,238.13s-4,.42-4,.38h-.06v0h-.22v0h-.17l-.05,0h-.34l0,0h-.45l-.06,0h-.5l-.11,0h-.9l-.05,0h-1.18c-2.23.08-5.7.14-5.7.14s-2.68.3-2.63.28c-.56.2-2.34.4,0,.57l5.26.24c1.34-.1,2.91,0,2.91,0h2.46l.05,0h1.12v0h2.29l.11,0h1.34l.06,0H145l.4,0h.78l.05,0h1.35l.05,0H149l.06,0h.55c2-.14,4.31-.06,4.31-.06,3.63.06,8.33-.36,10.06-.47a51.78,51.78,0,0,0-10-1.21c-3.41.11-8.38.21-8.38.21Z" style="fill:#fefefe;fill-rule:evenodd" />
    <path d="M226.7,267.62s-6.2.35-6.12.32c-.94.25-4.86.49,1.34.7,5.33.09,14,.27,14,.27,3.29-.11,7.29-.05,7.29-.05,6.43.06,13.73-.31,16.55-.39,0,0-10.35-1-19-1-5.65.1-14.12.18-14.12.18Z" style="fill:#fefefe;fill-rule:evenodd" />
    <path d="M37.17,275.35c-1.72.24-6.43.48-1.8.67-1.88.21-4.94.4-.08.55l13.34.25c3.52-.1,7.37,0,7.37,0,6.27,0,14.67-.28,17.8-.37,0,0-.94-.11-2.58-.25l1.8-.06h1.41c5.26.05,12.24-.24,14.91-.3A135.68,135.68,0,0,0,75.53,275l-5.26.07c-2.58-.14-5.41-.25-8.39-.25-6.74.09-16.63.17-16.63.17s-8.23.37-8.08.33Z" style="fill:#fefefe;fill-rule:evenodd" />
    <path d="M115.49,236.44s-2.79.29-2.68.26c-.62.21-2.4.4-.11.57,2,.07,5.25.21,5.25.21,1.34-.08,2.85,0,2.85,0,2.46,0,5.65-.26,6.88-.33a29.47,29.47,0,0,0-6.49-.81c-2.29.07-5.7.13-5.7.13Z" style="fill:#fefefe;fill-rule:evenodd" />
    <path d="M80.24,278.43c3.76,0,8.86-.17,10.82-.22,0,0-4.86-.54-10.12-.55-3.6,0-8.94.09-8.94.09s-4.39.19-4.31.17c-.94.14-3.77.27-.24.38l8.16.15c2.2-.06,4.63,0,4.63,0Z" style="fill:#fefefe;fill-rule:evenodd" />
    <polygon points="174.4 262.15 174.34 262.15 174.34 262.15 174.28 262.15 174.28 262.16 174.23 262.16 174.23 262.16 174.17 262.16 174.12 262.16 174.17 262.17 174.12 262.17 174.12 262.17 174.06 262.17 174.06 262.17 174 262.17 174 262.19 173.95 262.19 173.89 262.19 173.89 262.19 173.89 262.19 173.84 262.2 173.78 262.2 173.78 262.2 173.78 262.2 173.72 262.2 173.67 262.21 173.67 262.21 173.67 262.21 173.61 262.21 173.56 262.21 173.56 262.21 173.56 262.22 173.5 262.22 173.5 262.22 173.44 262.22 173.44 262.22 173.39 262.23 173.39 262.23 173.33 262.23 173.33 262.23 173.28 262.23 173.28 262.23 173.22 262.23 173.22 262.25 173.16 262.25 173.16 262.25 173.16 262.25 173.11 262.25 173.05 262.26 173.05 262.26 173.05 262.26 173 262.26 173 262.26 172.94 262.26 172.94 262.26 172.94 262.27 172.89 262.27 172.89 262.27 172.83 262.27 172.77 262.27 172.83 262.28 172.83 262.28 172.77 262.28 172.72 262.28 172.72 262.28 172.72 262.28 172.66 262.28 172.66 262.28 172.61 262.29 172.61 262.29 172.61 262.29 172.55 262.29 172.55 262.29 172.55 262.29 172.5 262.29 172.44 262.31 172.44 262.31 172.44 262.31 172.44 262.31 172.38 262.31 172.38 262.31 172.38 262.31 172.33 262.31 172.33 262.31 172.33 262.32 172.33 262.32 172.27 262.32 172.27 262.32 172.27 262.32 172.22 262.31 172.22 262.31 172.22 262.31 172.16 262.31 172.16 262.31 172.16 262.29 172.1 262.29 172.1 262.29 172.05 262.28 172.05 262.28 171.99 262.28 171.99 262.28 171.94 262.27 171.94 262.27 171.88 262.27 171.88 262.26 171.88 262.26 171.82 262.26 171.82 262.26 171.77 262.25 171.77 262.25 171.77 262.25 171.77 262.25 171.71 262.25 171.66 262.23 171.66 262.23 171.66 262.23 171.6 262.23 171.6 262.22 171.54 262.22 171.54 262.22 171.54 262.22 171.54 262.21 171.49 262.21 171.43 262.21 171.43 262.21 171.38 262.2 171.38 262.2 171.38 262.2 171.32 262.2 171.32 262.19 171.26 262.19 171.26 262.19 171.26 262.19 171.21 262.17 171.21 262.17 171.21 262.17 171.21 262.17 171.1 262.16 171.1 262.16 171.04 262.16 171.04 262.16 171.04 262.16 170.99 262.15 170.99 262.15 170.93 262.15 170.93 262.14 170.93 262.14 170.93 262.14 170.87 262.14 170.82 262.13 170.76 262.13 170.76 262.13 170.76 262.13 170.71 262.11 170.65 262.11 170.65 262.11 170.65 262.11 170.65 262.1 170.65 262.1 170.59 262.1 170.54 262.1 170.54 262.1 170.54 262.09 170.54 262.09 170.48 262.09 170.43 262.08 170.48 262.08 170.48 262.08 170.54 262.09 170.59 262.09 170.65 262.09 170.71 262.09 170.71 262.09 170.76 262.09 170.76 262.09 170.82 262.09 170.87 262.09 170.87 262.09 170.93 262.09 170.93 262.09 171.04 262.1 171.04 262.1 171.04 262.1 171.1 262.1 171.15 262.1 171.21 262.1 171.21 262.1 171.26 262.1 171.26 262.1 171.32 262.1 171.32 262.1 171.38 262.1 171.38 262.11 171.43 262.11 171.49 262.11 171.49 262.11 171.54 262.11 171.6 262.11 171.66 262.11 171.66 262.11 171.71 262.11 171.71 262.11 171.77 262.11 171.77 262.11 171.88 262.11 171.88 262.11 171.94 262.13 171.94 262.13 171.99 262.13 172.05 262.13 172.05 262.13 172.1 262.13 172.1 262.13 172.16 262.13 172.22 262.13 172.22 262.13 172.27 262.13 172.33 262.13 172.38 262.13 172.38 262.13 172.44 262.13 172.44 262.13 172.5 262.13 172.5 262.13 172.61 262.14 172.61 262.14 172.66 262.14 172.72 262.14 172.72 262.14 172.77 262.14 172.77 262.14 172.83 262.14 172.89 262.14 172.89 262.14 172.94 262.14 172.94 262.14 173 262.14 173.05 262.14 173.11 262.14 173.11 262.14 173.16 262.14 173.16 262.14 173.22 262.14 173.28 262.14 173.28 262.14 173.33 262.14 173.33 262.14 173.39 262.14 173.44 262.14 173.44 262.14 173.56 262.15 173.56 262.15 173.61 262.15 173.61 262.15 173.67 262.15 173.72 262.15 173.72 262.15 173.78 262.15 173.84 262.15 173.89 262.15 173.89 262.15 174 262.15 174 262.15 174.12 262.15 174.17 262.15 174.23 262.15 174.28 262.15 174.28 262.15 174.34 262.15 174.34 262.15 174.4 262.15 174.4 262.15" style="fill:#fefefe;fill-rule:evenodd" />
    <path d="M188.34,237.42c1.95.07,5.14.22,5.14.22a27,27,0,0,1,2.74,0c2.35,0,5.2-.24,6.32-.31a37.23,37.23,0,0,0-6.77-.79c-2.12.07-5.31.13-5.31.13s-2.46.28-2.4.25c-.45.19-2,.39.28.54Z" style="fill:#fefefe;fill-rule:evenodd" />
    <path d="M187.53,264.78s-3.8.31-3.74.29c-.56.22-3,.43.72.61l8.56.25c2-.11,4.47,0,4.47,0,3.86,0,8.33-.28,10.06-.36a97,97,0,0,0-11.46-.91c-3.41.08-8.61.15-8.61.15Z" style="fill:#fefefe;fill-rule:evenodd" />
    <path d="M85.28,253.28c-1.06.31-4.36.61-.11.86l9.84.35c2.57-.13,5.48-.05,5.48-.05,4.58.06,10.51-.39,12.75-.5a72,72,0,0,0-12.36-1.28c-4.25.12-10.56.21-10.56.21s-5.2.45-5,.41Z" style="fill:#fefefe;fill-rule:evenodd" />
    <path d="M120.32,272.28c-.86.14-2.82.28-3,.41-3.14.05-7.53.09-7.53.09s-3.84.18-3.77.15c-.7.14-3.21.25-.07.36l7.37.15c1.88-.06,4.08,0,4.08,0,3.37,0,7.76-.15,9.41-.2l-2-.19,9.18.18c3.53-.11,7.37,0,7.37,0,6.43,0,14.51-.3,17.57-.39,0,0-8.55-.95-17.33-1-5.89.09-14.59.16-14.59.16l-6.75.32Z" style="fill:#fefefe;fill-rule:evenodd" />
    <path d="M96.07,255.94l9,.3c2.35-.12,4.92-.05,4.92-.05,4.14.06,9.45-.35,11.46-.44a68.27,68.27,0,0,0-11.29-1.13c-2.18.06-4.92.11-6.93.14-.73-.07-1.51-.12-2.29-.12-1.9.05-4.64.09-4.64.09l-2.18.18c-.45.13-1.9.26,0,.37l1.28.05c-1.06.21-2.34.43.67.61Z" style="fill:#fefefe;fill-rule:evenodd" />
    <path d="M176.18,266.64l-3.21.17c-.47.13-2.51.25.47.35l6.9.15c1.73-.06,3.69,0,3.69,0,3.14,0,7-.15,8.47-.21,0,0-4.86-.5-9.18-.52-2.9.05-7.14.09-7.14.09Z" style="fill:#fefefe;fill-rule:evenodd" />
    <path d="M217.13,241.39c3,.05,6.48-.28,7.88-.37a53.12,53.12,0,0,0-8.67-.94c-2.68.08-6.65.17-6.65.17l-3,.3c-.51.22-2.41.45.5.63l6.49.26c1.56-.1,3.41-.05,3.41-.05Z" style="fill:#fefefe;fill-rule:evenodd" />
    <polygon points="109.02 273.65 109.02 273.65 109.02 273.65 109.33 273.64 109.49 273.64 109.73 273.63 109.88 273.63 110.12 273.62 110.51 273.6 110.67 273.6 111.14 273.59 111.3 273.58 111.45 273.58 111.61 273.57 111.77 273.57 111.69 273.57 111.53 273.58 111.37 273.58 111.3 273.59 109.73 273.65 109.57 273.65 109.49 273.66 109.41 273.66 109.26 273.66 109.18 273.68 109.18 273.68 109.18 273.68 109.02 273.65 109.02 273.65" style="fill:#fefefe;fill-rule:evenodd" />
    <path d="M213.27,284.88h.94l.24,0H218l.39,0h2.27l.4,0h1.8l.39,0h2.2l.16,0h2l.23,0h2l.16,0h1.8l.32,0h1.41c9.18-.16,17.57-.45,21.73-.54l-.4,0c7.69-.27-.31-.58-3.21-.91.39.05-13.34-.44-13.34-.44s-2.82,0-6.9,0l-4.31-.25c12.62.06,27.76-.49,33.65-.62,0,0-19.22-1.53-36.48-1.58-11.37.14-28.55.26-28.55.26s-4.86.21-8.71.35l-9.72-.08c-9.18,0-17.58.81-17.58.81,2.83.06,9.73.29,15.85.32-1.18,0-1.8,0-1.8,0l-11.22.43h-.08l-2,.06h-.31v0h-.47l-.08,0-.16,0H158.2l-.15,0H156.4l-.16,0h-1.57l-.15,0h-2.28v0h-3.45l-.16,0h-2.11c-1.42,0-2.91,0-4.4.05-4.55-.24-10.19-.48-16.08-.49-8.47.1-21,.18-21,.18s-10.2.37-10,.35c-2,.25-8.55.51,0,.73,4.16,0,9.8.14,14,.2-.31.11.63.22,4.63.31l21.26.31c5.49-.13,11.61-.05,11.61-.05h9.25l.24,0h3.14l.31,0h2.74l.24,0h2.9l.24,0h.78l.08,0h-.16l-.15,0h-1.49l-.16,0H163v0H161.5l-.24,0h-1.57l-.07,0h-4.08l-.08,0h-3.53c-9.88.11-24.63.2-24.63.2s-11.77.42-11.45.39c-2.28.3-9.81.58.23.83l23.3.33c4.7-.11,9.88-.07,11.84-.06-2.82.24-5.41.46,3.14.67l26.12.37c6.59-.16,14.12-.06,14.12-.06,12.08.06,26.91-.41,32.55-.53h-.62l-.08,0h-.71l-.15,0h-.87l-.15,0h-.79v0h-.55l-.15,0h0l-.32,0H222l-.24,0h-.23l-.24,0H221l-.16,0h-.16l-.31,0h-.24l-.39,0h-.86l-.16,0h-.86l-.31,0h-.32l-.23,0h-.08l-.47,0h-.94l-.4,0h0l-.31,0h-.39l-.39,0h-.32l-.39,0Z" style="fill:#fefefe;fill-rule:evenodd" />
    <path d="M90.84,289.59h-.45l-.11,0h-1.9s-6.43.48-6.26.44c-1.46.35-5.54.69-.56,1l3.18.11h0l-1.17,0c-1.85,0-3.69.15-5.31.3a87.49,87.49,0,0,0-12.41-1c-6,.13-14.93.25-14.93.25s-7.49.55-7.27.5a7,7,0,0,1-.78.13c-4.53.28-8.67.88-8.67.88,1.91.09,6.83.44,11.07.39,0,0,2.46-.06,4.64,0-.39.06-.67.08-.67.08,2.3.12,8.33.54,13.48.48-3.13.15-6.66.29-6.49.26-2.46.38-9.84.72-.78,1l12.91.23-2.63.11c-2.12.31-8.6.61-.55.86,1.06,0,2.23.05,3.46.06-.39.09,0,.17,2.35.25,4.47.07,11.85.22,11.85.22,3.19-.1,6.6,0,6.6,0,4.36,0,9.78-.14,13.19-.25l4.53-.1-2.74.11c-2.74.43-11.63.85-.11,1.2l7.49.13c.17.13,1.62.26,5.42.37l25.55.45c6.54-.17,13.92-.07,13.92-.07,11.74.09,26.67-.5,32.26-.66,0,0-4.87-.46-11.8-.89l3.52-.12s-14.31-1.43-28.4-1.48c-9.44.14-23.53.26-23.53.26l-4.31.19-6.2.06c-1.79-.18-5.93-.56-11.07-.84h1l.17,0h1.79l.05,0H112v0h1.84l.06,0h5.64l.06,0h2.35l0,0h2.3l.16,0h1.85l.17,0h0s-5.87-.62-12.18-.63h-3.86l-.06,0h-2.18v0h-.89v0h-1l-.11,0h-.84l-.06,0h1.79l.11,0h1.9l.06,0h.67s-5.93-.64-12.3-.67c-4.36.06-10.85.12-10.85.12h-.5v0H84.63l-.06,0H83.29l-.11,0h-.84v0h.22v0h.06l0,0h0v0h0l-.06,0h-.11v0h-.06v0h-.16v0h-.17l-.11,0h-.23l0,0H83s2.07-.05,3.86,0l7.27-.21c3.18-.16,1-.35.39-.54l-1.29-.1h.34c3.19-.15,6.65-.06,6.65-.06,5.14.08,12-.36,15.1-.52.83,0,1.45,0,1.45,0,2,0,4.42-.08,6.37-.18h1c.95,0,2,0,3,0-4,.31-7.1.85-7.1.85,2.12.1,7.71.48,12.13.43,0,0,2.74-.07,5.25.05l9.51-.3c2.18-.1,2.29-.24,1.78-.37.68,0,4.14-.08,7.38.07l13.42-.42c3.08-.16,3.24-.34,2.4-.53l2.24.08c3.69-.19,7.88-.08,7.88-.08,2,0,4.2,0,6.26-.08-2.29.27-3.85.58-3.85.58,1.95.08,7.1.42,10.84.37,0,0,2.35-.06,4.59,0H200l.11,0h1.73l.11,0h3.75l.22,0h1l-.06,0h0l-.23,0h-6.09l-.11,0h-.84s-6.09.28-6,.26c-1.06.2-4.92.41.61.57l12.8.23c3.13-.09,6.77,0,6.77,0h2.68l.11,0h3.86l.11,0h1.29l.22,0h1.85l.11,0h.28c3.46-.18,7.66-.08,7.66-.08,2.4,0,5,0,7.38-.12,5.53-.06,11.12-.3,13.47-.37,0,0-2.8-.27-6.88-.54a156,156,0,0,0-16.6-1.2h-.56l-.11,0H227l-.06,0h-2.29v0h-2.74c-6.43.1-16,.17-16,.17h-.79l0,0H203.2l0,0h-.23s-4.19-.06-7.66-.13l4.59-.25s-4.87-.79-10.79-1.29l3.24-.11c4.64-.25.84-.57-.5-.89.17,0-5.76-.42-5.76-.42s-7.16-.09-11.91-.21a74.07,74.07,0,0,0-8.1.51l-1-.08s-4.75-.06-7.94-.15h-.28l-.05,0H155l0,0h-.9l-.11,0h-1v0h-.67v0h-.78l-.05,0h-.9l-.11,0h-1v0h-1.23l-.11,0h-1.62l-.12,0H145l-2.79,0c-1.79-.06-3.64-.1-5.54-.11-8.1.12-20.18.23-20.18.23s-9.84.46-9.56.43c-2,.32-8.27.63-.11.91h1.06l4.64.1h.5l-.16,0H109.4l-.06,0h-.84l-.11,0h-.67l-.06,0h-.56l0,0h-.84l-.17,0h-.67l-.06,0h-.78l0,0h-3.36s-9.11.42-8.78.39H91.9l-.06,0h-.56v0h-.44Z" style="fill:#fefefe;fill-rule:evenodd" />
    <path d="M91.12,266.16h0l2.23-.11h2.86l-.06,0h-3l-.06,0H91.12Z" style="fill:#fefefe;fill-rule:evenodd" />
    <path d="M68.7,272.56h-.47l-.63,0-2.82,0H63.29v0H61.8l-.16,0H58.58l-.08,0h-2c-1.18,0-2.59,0-3.93.05-2.43-.2-5.8-.46-9.8-.64,3.45,0,6.12,0,6.12,0,2.43,0,5,0,7.68,0-2.19.19-4.39.39,1.18.55h1l.16,0h2.74l.08,0H66l.08,0H68.7Z" style="fill:#fefefe;fill-rule:evenodd" />
    <path d="M185.93,257h-.5s-4.64.4-4.53.37h-.11v0h-.23v0h-.27v0h-.23l-.05,0h-.34v0h-.22v0h-.17v0h-.11v0h0l.05,0h-.11l-.05,0H178c-2.79.07-6.87.13-6.87.13s-3.25.29-3.19.27c-.33.13-1.4.26-1.17.38h-.23c-.95.34-4.36.66.39.94l3.25.1c-5.2.12-11.8.23-11.8.23s-6.37.54-6.2.49c-.45.15-1.29.28-1.85.42l-2-.05h-1l-.06,0h-1.4l-.11,0h-.89l-.17,0h-.67l-.11,0h-.56l-.11,0h-.62l0,0h-.51l-.11,0h-.39l-.17,0H141l-.17,0h-.11l-.11,0h-.11l-.11,0H140l-.11,0h-2.74l-.05,0h-.84l-2.18.15c-.45.12-2,.25-.06.35H135l.06,0h1.84l.06,0h.61l-.11,0h-1.12l-.27,0h-3.25l0,0h-2.3l-.05,0h-1.34c-4.64.11-11.57.22-11.57.22l-2.52.19a50.16,50.16,0,0,0-5.53-.34c-3.42.09-8.56.16-8.56.16s-2.85.23-3.86.29H96l-.11,0h-.45l.06,0h-.62l0,0h-.56v0h-.73l.06,0H92.8l-.06,0h-.95l-.17,0H90.28l-.11,0h-1c-4.14.1-10.23.18-10.23.18s-5.14.37-5,.35c-1.06.25-4.42.51-.56.73,1,0,2.13.06,3.24.1a4.2,4.2,0,0,1-.84,0c-1.5.35-5.14.68-4.3,1l-3.19,0-4.24.29c-.84,0-1.74-.07-2.69-.07-4.69.11-11.63.19-11.63.19s-6,.41-5.75.37c-1.4.29-5.26.56-1,.8l10.29.31c2.9-.13,5.87,0,5.87,0,2.9,0,6.54-.1,9.5-.24l4.19.13c3.36-.16,6.82-.06,6.82-.06h2.46l-.22,0h-.17l-.67.05h-.06l-.44,0h-.62l-.17,0h-.83v0H78.6c-1.4.31-5.09.61-1.74.87-1.67.26-4.13.53,0,.75H77l.06,0H79l.05,0h1.9l.12,0h2.18l.16,0h1.79l.11,0h1.35l-.06,0h-.34l-.11,0h-.28l0,0h-.34l0,0h-.23l-.11,0h-.17v0H84.8v0h0l.11,0H85v0h.4l0,0H86l.11,0h.84l.16,0c4.42.11,11.58.32,11.58.32,3.07-.13,6.42-.05,6.42-.05H109l.17,0h2.07l.17,0h1.56l.22,0h1.29l.17,0h.67c-1,.22-3.63.43-.22.61h.78l.11,0h2.35l0,0h1.46l.11,0h.78l0,0h-1l-.12,0h-.83l-.12,0h-.72l-.17,0h-.9v0h-.89c-1.12.28-4.75.54-.17.76h1l-.06,0h-.28c1.18.06,4.36.25,6.88.23,0,0,1.56,0,2.91,0h1.39l2.52-.07h.06l.16,0h.56l.06,0h1.4c5,.06,11.46-.34,13.86-.43h0v0h-.39l-.06,0h-.33v0H145l-.11,0h-.17l-.11,0h0l-.17,0h-.27l-.12,0h-.28l-.11,0h-.05l-.17,0h0l-.23,0h0l-.11,0h0l-.22,0h0l-.17,0h0l-.17,0H142l-.11,0h-.11l-.11,0h-.06l-.17,0h-.05l-.23,0h0l-.22,0h-.06l-.22,0h0l-.22,0h-.23l0,0h-.62l-.05,0H139l-.22,0h-.06l-.22,0h-.06l-.22,0h0l-.28,0h0l-.22,0H137l-.11,0H136l-.56,0h0l-.28,0h.56v0h1.12v0h1a63.1,63.1,0,0,0-9.95-.88h-1l-.11,0h-3.13l-.11,0h-3.69l-.06,0h-.33l-.11,0h-.34l-.11,0h-.22l-.12,0h-.16l-.17,0h-.06l-.11,0H118l-.11,0h0l-.23,0h-.33l-.06,0h0l-.17,0h0l-.17,0h-.06l-.16,0h-.12l-.22,0h0l-.12,0h0l-.16,0h-.12l-.11,0h-.39l-.28,0h-.39l-.11,0h-.06l-.22,0h-.23l0,0h-.56l-.06,0h-.28l-.16,0h-.12l-.16,0h-.23l-.16,0H112l-.22,0h-.45l-.28,0h-.61l-.4,0h-1.28l-.06,0h-.28v0h-.5v0h-.28l-.06,0h-.39l0,0h0l.44,0,5.2.17c4-.19,8.33-.09,8.33-.09,3.19.05,6.77-.06,10.07-.19-.34.12,0,.23,1.95.34,3.64.09,9.51.28,9.51.28,2.51-.12,5.25,0,5.25,0,.78,0,1.57,0,2.41,0-2.86.33-4.76.65-4.76.65,1.9.1,6.21.35,10.57.47-.73.16-.62.32,2.12.46l11.46.34c2.85-.13,6.15-.06,6.15-.06,5.26.07,11.8-.37,14.26-.49,0,0-3.86-.61-8.61-1-.62-.13-1.73-.28-2.29-.42.22.05-6-.41-6-.41H169.5l-.12,0H166l-.5,0h.45v0h.33c4.81.06,10.85-.34,13.08-.44h-.27l-.06,0h-.45l.11,0h1.68l.11,0h1.29l.11,0h1l.11,0h1l.05,0h1.06v0h.62a74.21,74.21,0,0,0-10.34-.91l-.9,0c-1.84-.16-3.74-.28-5.76-.29-4.08.09-10.06.19-10.06.19s-4.75.37-4.64.33h0l-.11,0h-.17v0h-.28v0h-.33l-.12,0h-.28v0h-.28v0h-.16v0h-.73l-.06,0h-.78l-.05,0H150l0,0h-2l-8.95.16a115.61,115.61,0,0,0-16.77-1.44c-6.54.16-16.21.29-16.21.29l-1,.07H105l.06,0h-.45v0h-.33l0,0h3.08l.22,0h1.62l.11,0h1.74l.28,0h0l.39,0h1l.17,0h1.28l.28,0h1.06l.17,0H117l.28,0h1l.11,0h1l.12,0h1.06l0,0h1l.17,0h1l.17,0H124s-1.51-.29-4-.64l.9,0h.39v0h5.08l.12,0h1.9c5,.08,11.51-.38,13.92-.5h-.23l.06,0h-.34l0,0h-.28l-.06,0h-.33l-.06,0h-.33v0h-.34l-.11,0h-.39l-.06,0h-.33l-.12,0h-.22l.11,0h1.85l.11,0h1.12l0,0h1.06v0h.17l.17,0h1.68l.11,0H147c2.18-.12,4.64,0,4.64,0,4,0,9-.32,10.9-.41l-2-.31,2.35-.07a9.39,9.39,0,0,0,1.84-.2l.51,0c3.18-.18,6.93-.08,6.93-.08.73,0,1.51,0,2.35,0-.28.16.22.3,2.62.44l2.13.05c-.9.22-1.12.42,2.24.6l12.07.39c2.91-.16,6.43-.08,6.43-.08l.11,0h2.18l.06,0H205l.06,0h1.73l.12,0h1.23l.05,0H209l.17,0H211v0h.73l.06,0h.44l10.34.31c2.41-.13,5.37-.05,5.37-.05h3.75l.11,0h1.62l.17,0h1.06l.62,0h.16l.67,0h.11l.28,0h0l.9-.06h0l.89-.05h4.59c4.81.06,10.34-.38,12.52-.49,0,0-1.34-.2-3.35-.44,4.36,0,8.88-.41,10.79-.52a125.37,125.37,0,0,0-15-1.29c-4.36.12-11,.22-11,.22s-4,.37-4.64.4l-.23,0c.17,0-6.26-.45-6.26-.45s-7.6-.1-12.69-.24a77.34,77.34,0,0,0-9.22.67,72.89,72.89,0,0,0-9.67-.81c-3.41.08-8.61.17-8.61.17l-3.08.26c-1.34-.17-2.85-.33-4.47-.46,2.68-.14,5.76-.05,5.76-.05,5,.07,11.18-.42,13.58-.54h0l-.06,0h-.39l-.06,0h-.22l-.11,0h-.17l-.11,0h-.06l0,0h-.34l-.11,0h-.34l0,0h-.06l-.22,0-.11,0h-.06l-.11,0h-.17l-.56-.09h0l-.39,0-.06,0h-.11l-.11,0h-.17l-.11,0H193l-.12,0-.5-.05h-.17l-.33,0h-.17l-.17,0h-.17l-.16,0h0l-.23,0-.16,0-.17,0h.5c2.4-.13,5.14-.06,5.14-.06,4.48.06,9.9-.35,11.91-.45h0v0h-.33l-.12,0h-.33l-.06,0h-.28l-.11,0h-.33l-.06,0h-.39l-.06,0h-.05l-.06,0h-.33l-.12,0h0l-.11,0h-.28l0,0h-.39l-.12,0h-.33l-.17,0h-.39l-.06,0h-.05l-.17,0h-.28v0h2.68l.23,0h1.39l.17,0h1.29l.11,0H210l.11,0h.9l.22,0H212l.17,0h.89l.11,0h.73l.17,0H215l.11,0h.56s-2.41-.42-5.76-.82l8.61.3c2.63-.15,5.81-.06,5.81-.06,5,.07,10.79-.43,13.08-.55l-.67-.11c2.57-.17.11-.39-.78-.61.11,0-3.75-.28-3.75-.28l-3.13-.06c-2.07-.19-4.3-.34-6.43-.35-3.07.1-7.26.17-9.5.2l2.18-.14A81.56,81.56,0,0,0,202.93,253c-3.92.11-9.67.2-9.67.2s-4.48.43-4.31.4c-.39.14-1.23.29-1.57.43h0a29.8,29.8,0,0,0-5.7.63c1.12,0,4.08.28,6.26.24,0,0,1.34,0,2.63,0l4.69-.17a4.57,4.57,0,0,0,.84-.1l2.85.11c2.29-.14,5-.06,5-.06,1.85,0,3.86,0,5.7-.13-1.39.13-3.07.29-3,.26-.5.21-1.73.4-1.79.58-1.34-.09-2.79-.16-4.13-.16-4.64.13-11.63.24-11.63.24s-5.31.5-5.14.46h-.23v0h-.17l-.05,0h-.17l-.06,0H183v0h-.27v0h-.23v0h-.22v0h-.51l0,0h-.11l-.17,0h-.06l-.11,0h-.39l-.17,0h-.33l-.17,0h-.39l-.11,0h-.4l-.16,0h-.45l-.11,0h-.56l-.17,0h-.5l-.06,0h-.72l-.12,0h-.78l-.11,0H174.3l-.16,0H173c-3.63.1-9.17.18-9.17.18s-4.36.37-4.24.34c-.56.16-2,.34-1.74.5l-1.17,0c-3.75.09-9.28.18-9.28.18s-4.42.37-4.25.33c-.9.25-3.69.51,0,.72l8.73.29c2.18-.11,4.69-.05,4.69-.05,4,.06,9.11-.31,11.07-.42,0,0-2.12-.4-5.09-.7l5.93.2c2.29-.12,4.75,0,4.75,0H176l.16,0h1.68l.11,0h1.23l.11,0h1.07l.11,0h1l.06,0h1.11l.06,0h.61v0h1v0h1.51l.11,0Z" style="fill:#fefefe;fill-rule:evenodd" />
    <path d="M230,245.19h.28l.06,0h1l0,0h.84l.11,0H233l.11,0h.73l.11,0h.73l.06,0h.67l.05,0h.73l.11,0H237l.11,0h.12A99.15,99.15,0,0,0,221.43,243c-4.75.16-11.91.29-11.91.29s-5.36.6-5.25.54c-.84.43-4.31.83.84,1.18h.44l.23,0H206l-.05,0h0v0h-.06l.06,0h.11l.05,0h.06c-.9.24-1.9.46,1.23.67l9.33.34c2.24-.14,4.87-.05,4.87-.05,4.25.07,9.28-.39,11.18-.51h-.22v0h-.4v0h0l-.17,0h-.06l0,0h-.06l-.16,0h-.12l-.05,0h-.34l-.11,0h-.34l-.11,0-.11,0h-.11l-.11,0H230Z" style="fill:#fefefe;fill-rule:evenodd" />
    <path d="M237.64,288.41h.28l.05,0h.84l.06,0h1.4l0,0h.39l14.43.26c3.52-.11,7.6,0,7.6,0,6.6,0,14.31-.3,17.33-.38h-.28l-.05,0h-.62l-.06,0h-.61l-.11,0h-.28l-.17,0h-.22l-.17,0h-.62l-.11,0h-.28l-.17,0h-.27l-.06,0h-.34l-.22,0h0l-.34,0h-.95l-.22,0h-.61l-.23,0H273l-.34,0h0l-.39,0h-1.12l-.22,0h-.73l-.22,0h-.84l-.34,0h-.44l-.34,0h-.5l-.17,0h-1.23l-.28,0h-1.68l-.28,0h-.72l-.56,0h-.9l-.11,0h-1l-.06,0h.17s-13-1.3-24.38-1.34c-7.49.12-18.72.22-18.72.22s-8.61.46-8.39.43c-1.4.32-6.88.64,1.12.91,5.87.12,14.81.3,17.55.34-.95.17-1.17.32,3,.46h.55l5.15.11h1.06Z" style="fill:#fefefe;fill-rule:evenodd" />
    <path d="M258.38,271.89h-.94l-.47,0h-5.1v0h-3.61s-7.61.42-7.37.38a17,17,0,0,0-2.67.51l-3.29,0c-9.58.16-24.09.29-24.09.29s-11.14.59-10.82.54c-2,.4-9,.81,1.25,1.15H204l.16,0h2.9l.23,0h3l.08,0h3.06l.08,0h.94a1,1,0,0,0-.23.05h-.16l.08,0h-.08l.08,0h.08l.07,0h.32l.23,0h.55l.08,0h1.26l.15,0h1.41l.08,0h.47l.08,0h.94l.08,0h1.41l.16,0h.08c5.41.09,14.43.27,14.43.27,3.45-.12,7.53,0,7.53,0h.71l.08,0h1.1v0H250l.23,0h2.35l.16,0h2.59l.08,0h2.82l.08,0h2.2l.07,0h2l.24,0h1.49l.16,0h1.65l.23,0h1.88l.16,0h1.49l.16,0h.23l-.08,0h-.62l-.16,0h-.55l-.16,0h-.62l-.08,0h-.63l-.16,0h-.62l-.08,0h-.87l-.07,0H266l.08,0h1.56l.08,0h2v0h.24s-3.84-.37-8.94-.67c-2.75-.21-6.43-.48-10.51-.7l8.62.16c4-.13,8.87,0,8.87,0,7.61.06,16.39-.37,19.92-.48l-.39,0c2.59-.08,4.71-.18,6-.21h-.08v0h-.62l-.08,0h-.55l-.16,0h-.55l-.23,0h-.47l-.24,0h-.86l-.08,0h-.16l-.23,0h0l-.24,0h-.23l-.24,0h-.15l-.08,0H288l-.24,0h-.07l-.87-.06h-.08l-.23,0h-.24l-.23,0h0l-.24,0h-.47l-.31,0h-.47l-.32,0h-.47l-.62,0h-.24l.08,0h2.12l.15,0h1.81l.23,0h1.42l.23,0h1.49l.16,0h1.57l-.08,0h1.18s-10.75-1-19.77-1c-6,.1-14.91.18-14.91.18s-6.58.35-6.43.32H252l.07,0h-.39l.08,0h-.39l-.08,0h-.24l-.07,0h-.55l-.24,0h-.39l-.24,0H249l-.16,0h-.63l-.08,0h-.7l-.08,0h-.39l-.32,0h-.78l-.24,0H245l-.24,0h-.39l-.16,0h0l-.16,0h-.7l-.24,0h-.7l-.24,0h-.63l-.31,0h.94l.16,0h1.57l.08,0h1.64v0h1.34s-7.93-.79-15.06-.82c-4.63.07-11.69.13-11.69.13s-5.34.29-5.18.27h-.23v0h-.4v0h-.47v0h-.31l-.08,0h-.23l-.08,0H209l-.16,0h-3s-9.72.53-9.49.49c-1.65.37-7.84.73,1.18,1l20.55.42c5-.17,11-.07,11-.07h6.43l.4,0h2.9l.31,0h1.81l.31,0h1.88l.16,0h1.65l.31,0h1.49l.16,0h1.41l.31,0H250v0h.62l.08,0h.86l.08,0H253l.07,0h3l.23,0h2.12Z" style="fill:#fefefe;fill-rule:evenodd" />
    <path d="M171.51,249.19H171c-1.11.43-5.42.86.51,1.24H173l.11,0h1.68l.11,0h1.56l.17,0h1.79l.11,0h-1.17l-.17,0h-1.84l-.23,0h-3.3l-.22,0h-3.13v0h0s-5.65.54-5.54.5h-.11l.06,0h-.28v0h-.22l-.06,0h-.17l0,0h-.23v0h-.22l-.11,0h-.17l-.06,0h-.16v0H161l-.06,0h-.11v0h-.06a.09.09,0,0,0-.05.1h-1.4s-4.92.44-4.81.41c-.89.31-4.08.61.17.86,3.8.12,9.9.35,9.9.35,2.57-.15,5.36-.06,5.36-.06,4.59.06,10.23-.39,12.41-.51h-.28v0h-.44v0h-.28v0H181l-.12,0h-.28l-.05,0h-.34l0,0h1.06c5.31.09,11.85-.48,14.42-.62h-.22l-.06,0H195l-.06,0h-.05l-.12,0h-.11l-.05,0h-.17l-.06,0h0l-.16,0H194l-.11,0h-.06l-.11,0h0l-.17,0h-.27l-.12,0h0l-.22,0h0l-.11,0h-.23l-.11,0-.05,0-.12,0h-.05l-.17,0-.05,0h-.12l-.16,0h0l-.4-.05h-.11l-.11,0H191l-.44-.06h-.06l-.17,0-.11,0h-.11l-.17,0h0l-.22,0h-.06l-.17,0h-.11l-.11,0-.22,0h0l-.23,0h-.05l-.17,0-.28,0-.17,0h0l-.22,0h-.06l-.22,0h-.45v0l-.28,0-.5-.05h-.45l-.28,0h.95l.11,0h5.87c6.32.1,13.92-.55,16.83-.72a115.22,115.22,0,0,0-17.83-1.8h-1.85l-.11,0h-1.73l-.23,0H185l-.11,0H183.7v0h-.28l-.06,0h-.28v0h-.39v0h-.28c.45-.13-.78-.28-1.17-.42,0,0-2.91-.26-2.91-.26l-2,0c-1-.06-2-.11-3-.12l-.95,0-.22,0c-.5,0-1,0-1.51,0-3.19.09-6.6.15-6.6.15l-.89.08a33.46,33.46,0,0,0-3.41-.2h-2v0h-2.24l-.06,0h-.39l0,0h-.23c2.46-.13,4.59-.29,5.7-.36a63.14,63.14,0,0,0-11.57-1.28c-3.91.12-9.72.21-9.72.21H139l.06,0h-.5l-.06,0h-.67l-.06,0h-.61l-.06,0h-.61l-.06,0h-.61l-.06,0h-.62l-.05,0h-.17l2.41-.15h-.06v0H137l-.06,0h-.16l-.06,0h-.34v0h-.27l.05,0h-.28l-.05,0h2.46l.11,0h1.34l.06,0h1l.06,0h.89l.06,0h.89v0H144l.05,0h1.46l0,0h1.4l.06,0h1.34l.11,0h.84c2.4-.15,5-.07,5-.07,4.25.07,9.67-.41,11.74-.54a61.32,61.32,0,0,0-6.6-1.06c2.29-.26-.22-.55-1.06-.85.11,0-4.64-.46-4.64-.46s-4.25-.07-8-.17c2.23-.25-.06-.52-.79-.81.12,0-4.24-.41-4.24-.41s-5.48-.09-9.17-.21a59.29,59.29,0,0,0-11,1.29c1.9.12,6.88.59,10.91.51,0,0,2.45-.08,4.69.06l1.23,0c-.17,0-.39,0-.61.08-3.41.08-6.49.13-6.49.13s-3.46.36-5,.48c-.4,0-.84,0-1.29,0-.89-.12-1.84-.23-2.91-.31-.28-.14-1-.27-1.28-.4,0,0-3.8-.38-3.8-.38s-5-.09-8.33-.19a60.61,60.61,0,0,0-10.46,1.15c-1.45.14-4.53.43-4.47.4-1.12.36-4.58.72-.45,1,3.64.14,9.73.41,9.73.41,2.68-.17,5.48-.06,5.48-.06H108c-1.29.37-4.76.74-.34,1.05l9.62.38-1,.18c1.56.1,5.7.46,9,.41,0,0,2.06-.07,3.85,0h.28l.06,0h.78l.56,0,.17,0h1.34l.39,0h1.85c1.73.08,4.08.16,6,.23h-.11v0h-.23l0,0h-.28v0h-.23l0,0h-.06c-.05,0,0,0,0,0h0v0l.06,0h.17l.05,0h.5v0h.17l0,0h-.56l-.06,0h-.45l-.05,0H139l-.11,0h-.12l-.05,0h-.11l-.11,0h0l-.12,0h-.22l-.06,0h-.39v0h-.44l-.17,0h-.28l-.06,0h-.39l-.11,0h-.56v0h-.5l-.12,0h-.78l-.05,0h-.79l-.16,0h-1l-.17,0h-1.23c-4,.11-9.73.2-9.73.2h-.11l0,0h-.56l-.11,0h0l-.12,0-.22,0h-.17l-.28,0H119v0h-.16s-5.31-.08-8.95-.19a67.93,67.93,0,0,0-11.18,1.18c1.85.11,6.65.54,10.62.48,0,0,2.46-.08,4.59.05h1l.23,0h.11l.84,0h.17l.61,0h2.35l.17,0h.78l-.06,0h-.61l-.06,0h-.72l-.06,0H118v0h-.22a3.37,3.37,0,0,1-.34.09c-1.11.11-2.18.19-2.12.18h-.06v0h-.16l-.06,0h-.22l-.06,0h-.22v0h-.34l.06,0h-1l-.22,0h-1.29l0,0h-.34l-.28,0h0l-.11,0h-.78l-.12,0H109c-2.51.07-6.15.13-6.15.13l-2.12.19h-.28c-5.14.15-12.8.28-12.8.28s-6.54.57-6.32.52c-1.57.41-5.76.81-.89,1.14,4.52.16,11.68.44,11.68.44,3.24-.17,6.65-.07,6.65-.07,1.68,0,3.58,0,5.48-.08-.78.23-3,.44-.22.62l6.59.25c1.74-.09,3.69,0,3.69,0,3.08,0,7.16-.29,8.72-.37a41.5,41.5,0,0,0-8-.93c-1.17,0-2.57.08-3.85.1,1.39-.08,2.57-.17,3.35-.2v0h-.28v0h-.22v0h-.28l-.06,0h-.28l0,0h1l.11,0h.73c2.46-.14,5.09-.06,5.09-.06h3.41l.11,0h1.51l.17,0h1.12l.11,0h1l.12,0h.89l.17,0-.11,0h-.34l-.06,0H128l-.06,0h-.28l-.06,0h-.28l0,0H127l.06,0h-.17c1.34.07,4.92.37,7.77.32,0,0,1.79-.05,3.3,0l6.15-.23c2.68-.15.67-.36.11-.56.11,0-3-.26-3-.26l-5.08-.1c2.9-.14,5.53-.35,6.87-.42,0,0,0,0-.11,0h.06l.11,0h.89l.11,0h1.57l.05,0h1.57v0h.56c1.62-.1,3.41,0,3.41,0,2.91,0,6.6-.25,8-.33a44.1,44.1,0,0,0-7.88-.84c-2.68.07-6.65.14-6.65.14h-.23l0,0h-.28l-.34,0-.11,0h-.78v0h-.39l-.06,0h-.33l-.06,0h-.33l-.06,0h-.5l-.06,0h-.39l-.06,0h-.44v0h-.51l0,0h-.45l-.06,0h.73l.06,0h1.45l-.06,0h1.85s1.56,0,3,0l5.48-.21c1.12-.07,1.29-.16,1.06-.24l4,.15c.5,0,1.06,0,1.56,0a8.85,8.85,0,0,0,1.85.22c3.35.12,8.89.35,8.89.35h.39l0,0h2.13Z" style="fill:#fefefe;fill-rule:evenodd" />
    <path d="M174.79,252.8c4.47.07,9.78-.38,11.85-.49a90.08,90.08,0,0,0-13-1.24c-4,.1-10,.2-10,.2s-4.53.43-4.48.39c-.67.32-3.63.62.67.85l9.84.35c2.3-.14,5.15-.06,5.15-.06Z" style="fill:#fefefe;fill-rule:evenodd" />
    <path d="M149.19,299.74s2.79-.05,5.19,0l9.62-.21c4.25-.17,1.17-.36.28-.56.11,0-4.64-.26-4.64-.26s-6.15-.06-10.18-.13a118.77,118.77,0,0,0-12.41.8c2.13.07,7.72.36,12.14.33Z" style="fill:#fefefe;fill-rule:evenodd" />
    <path d="M198.78,292.72c-3,.06-7.55.12-7.55.12s-3.58.25-3.52.23c-.62.18-2.91.35.16.49h.95l.17,0h.11v0h.12l-.06,0h.28l.06,0h.55v0H191l8.56.26c2.18-.1,4.64,0,4.64,0,3.91.06,8.89-.28,10.79-.35a82.4,82.4,0,0,0-11-.92h-2.29l-.11,0h-1.18v0h-1.67Z" style="fill:#fefefe;fill-rule:evenodd" />
    <path d="M195.14,295.93c-.5.13-2.24.26.11.37l5.48.14c1.4-.06,3,0,3,0,2.52,0,5.71-.17,6.94-.22a57.69,57.69,0,0,0-7-.52c-2.29.05-5.81.08-5.81.08s-2.68.19-2.63.17Z" style="fill:#fefefe;fill-rule:evenodd" />
    <path d="M170.15,299.93h-.89l-.06,0h-.95l-.05,0h-.9c-.89.2-3.8.39-.05.55l8.77.23c2.29-.09,4.81-.05,4.81-.05,4.08.05,9.28-.24,11.24-.31a88.42,88.42,0,0,0-11-.82h-2.68l-.17,0h-4.08l-.05,0H173l.06,0h.11l.06,0H173v0h-.33l-.06,0h-.33v0h-.23l-2.74-.17s-3.63,0-6-.1a62.54,62.54,0,0,0-7.27.54c1.28.06,4.58.25,7.21.22,0,0,1.57,0,3,0H168l.11,0h2.07Z" style="fill:#fefefe;fill-rule:evenodd" />
    <path d="M112.68,297.83c-1.23.24-4.58.48-1.28.67-1.34.21-3.53.4-.06.55l9.5.25c2.52-.1,5.26,0,5.26,0,4.47,0,10.45-.28,12.69-.37,0,0-.67-.11-1.84-.25l1.28-.06h1c3.74,0,8.72-.24,10.62-.3a69.37,69.37,0,0,0-9.84-.79l-3.75.07c-1.84-.14-3.85-.25-6-.25-4.81.09-11.85.17-11.85.17s-5.87.37-5.76.33Z" style="fill:#fefefe;fill-rule:evenodd" />
    <path d="M143.37,300.91c2.69,0,6.32-.17,7.72-.22a54.06,54.06,0,0,0-7.21-.55c-2.57.05-6.38.09-6.38.09l-3.07.18c-.67.13-2.68.26-.17.37l5.82.15c1.56-.06,3.29,0,3.29,0Z" style="fill:#fefefe;fill-rule:evenodd" />
    <path d="M171.94,294.76a17.74,17.74,0,0,0-2.12.41c-2.24.05-5.37.09-5.37.09s-2.74.18-2.68.15c-.51.14-2.3.26-.06.36l5.26.15c1.34-.06,2.9,0,2.9,0,2.41,0,5.54-.15,6.71-.2l-1.4-.19,6.54.18c2.52-.11,5.26,0,5.26,0,4.58.05,10.34-.3,12.52-.39a93.37,93.37,0,0,0-12.35-1c-4.2.09-10.4.16-10.4.16l-4.81.32Z" style="fill:#fefefe;fill-rule:evenodd" />
    <polygon points="163.89 296.13 163.89 296.13 163.89 296.13 164.11 296.12 164.22 296.12 164.39 296.11 164.5 296.11 164.67 296.1 164.95 296.08 165.06 296.08 165.4 296.07 165.51 296.06 165.62 296.06 165.73 296.05 165.84 296.05 165.79 296.05 165.68 296.06 165.56 296.06 165.51 296.07 164.39 296.13 164.28 296.13 164.22 296.14 164.17 296.14 164.06 296.14 164 296.16 164 296.16 164 296.16 163.89 296.13 163.89 296.13" style="fill:#fefefe;fill-rule:evenodd" />
    <path d="M135.15,295l.11,0h-.89l-2,0h-1.12l-.11,0h-1.29l.06,0h-2l0,0h-1.46c-.84,0-1.84,0-2.79,0-1.74-.2-4.14-.46-7-.64,2.46,0,4.36,0,4.36,0,1.73,0,3.58,0,5.48,0-1.57.19-3.13.39.84.55h.22l.17,0h2.4l.06,0h2.57l-.06,0h2.46Z" style="fill:#fefefe;fill-rule:evenodd" />
    <path d="M123.58,228.21s-1.26,0-2.42,0l-4.36-.15c-1.84-.12-.36-.26.18-.4-.07,0,2.27-.19,2.27-.19s2.06,0,3.86-.06a34.13,34.13,0,0,1,4.62-.4l4.81.1,2.16.2c.4.14,1.84.28-.14.41l-4.59.16-1.15,0,.54.11c-1,.05-3.76.26-5.78.23Z" style="fill:#fefefe;fill-rule:evenodd" />
    <path d="M132.5,232.77c-1.3,0-3-.09-3.57-.13a26.25,26.25,0,0,1,3.68-.32l3,.06s1.41.11,1.41.1c.22.08,1.12.15-.11.22l-2.85.09c-.72,0-1.55,0-1.55,0Z" style="fill:#fefefe;fill-rule:evenodd" />
    <path d="M153.07,226.19c.18.08,1,.15-.07.21l-2.38.09c-.62,0-1.27,0-1.27,0-1.08,0-2.45-.09-3-.11a17.26,17.26,0,0,1,3-.31c1,0,2.53,0,2.53,0l1.15.09Z" style="fill:#fefefe;fill-rule:evenodd" />
    <path d="M164.23,231.8c.68.18,2.81.35.07.5l-6.35.2c-1.66-.08-3.54,0-3.54,0-3,0-6.79-.23-8.23-.29a51.23,51.23,0,0,1,8-.75c2.74.07,6.82.13,6.82.13s3.36.26,3.25.24Z" style="fill:#fefefe;fill-rule:evenodd" />
    <path d="M157.26,233.35l-5.81.17c-1.52-.07-3.18,0-3.18,0-2.67,0-6.1-.2-7.4-.25a48.45,48.45,0,0,1,7.29-.66l4.48.08c.47,0,1-.07,1.48-.07l3,0,1.4.11c.29.07,1.23.15,0,.21l-.83,0c.69.13,1.52.25-.43.36Z" style="fill:#fefefe;fill-rule:evenodd" />
    <path d="M134.12,229.4h.33c.72.26,3.5.51-.33.73h1.95s3.65.32,3.58.3h1.4s0,0,0,0h.9s3.18.26,3.11.24c.57.18,2.63.35-.11.5l-6.39.2c-1.66-.08-3.47,0-3.47,0-3,0-6.6-.23-8-.3h.76c-3.43.05-7.65-.28-9.31-.37h.79l.11,0h.25l.07,0h.73l.07,0h0l.08,0h.36l.25,0h.07l.07,0h.11l.29,0h0l.11,0h.14l.11,0h0l.14,0h.72l.18,0h.11l.15,0h0l.15,0h.47l.32,0h-4c-4.08.06-9-.32-10.87-.42a83.32,83.32,0,0,1,11.51-1.05h5.92c-.28-.07.51-.16.76-.24l1.88-.16,1.26,0c.62,0,1.27-.06,2-.07l.62,0h.14c.32,0,.65,0,1,0l4.26.08.58.05c.69-.07,1.45-.12,2.2-.12h3.22c-1.59-.08-3-.17-3.69-.21a45.22,45.22,0,0,1,7.48-.75c2.52.07,6.28.13,6.28.13h2.78l-1.56-.09h-7.72c-1.55-.09-3.25,0-3.25,0-2.74,0-6.24-.24-7.58-.31,0,0,1.84-.39,4.26-.63-1.48-.14.14-.32.69-.49-.08,0,3-.27,3-.27s2.74,0,5.16-.1c-1.44-.14,0-.3.51-.47-.07,0,2.74-.24,2.74-.24s3.54-.06,5.92-.13a42,42,0,0,1,7.11.76c-1.22.07-4.44.34-7,.3,0,0-1.58-.05-3,0l-.79,0a3.21,3.21,0,0,1,.39.05l4.19.07s2.24.21,3.21.28c.26,0,.55,0,.83,0,.58-.07,1.2-.13,1.88-.18.18-.08.65-.15.83-.23,0,0,2.46-.22,2.46-.22s3.21-.05,5.37-.11a42,42,0,0,1,6.75.67c.94.08,2.93.25,2.89.23.72.21,3,.42.29.6l-6.28.24c-1.73-.1-3.54,0-3.54,0h-.29c.83.22,3.07.44.22.62l-6.21.22.62.11c-1,0-3.69.26-5.82.23,0,0-1.33,0-2.49,0H158l-3.86.13h.65s0,0,0,0h0v0h.47l0,0h.14l.07,0h1.3l.07,0h3.47c2.56.06,6.28.12,6.28.12h.61l.15,0h.76s3.42,0,5.77-.11a48.66,48.66,0,0,1,7.22.7c-1.19.06-4.3.31-6.86.27,0,0-1.59,0-3,0h-.86l-.55,0h-1a1.66,1.66,0,0,0,.21.06l1.38.1h4.07l4,.08,1.38.11H180c3.32.08,8.26.16,8.26.16s4.23.34,4.08.31c1,.24,3.72.47.58.66-2.92.09-7.54.26-7.54.26-2.1-.1-4.3,0-4.3,0-1.08,0-2.31,0-3.54-.05.51.13,1.92.26.15.37l-4.26.14c-1.12,0-2.38,0-2.38,0-2,0-4.62-.17-5.64-.22a30,30,0,0,1,5.2-.53l2.49,0-2.16-.12h-.44c-1.58-.08-3.28,0-3.28,0H163c-.86,0-3.17.22-5,.19,0,0-1.16,0-2.13,0l-4-.13c-1.74-.09-.44-.21-.08-.33l1.95-.16,3.29,0c-1.88-.09-3.58-.2-4.44-.25h-3.11c-1-.06-2.2,0-2.2,0-1.87,0-4.26-.15-5.16-.2a31.25,31.25,0,0,1,5.09-.49l4.3.08h.36l.21,0h.4s-1,0-1.91,0l-3.54-.13c-.72,0-.83-.09-.69-.14l-2.6.1c-.32,0-.68,0-1,0a6.05,6.05,0,0,1-1.19.13l-5.74.2h-1.66Z" style="fill:#fefefe;fill-rule:evenodd" />
  </g>
  <g style="clip-path:url(#a)">
    <path d="M157.93,7A145.35,145.35,0,0,1,299.6,119.93H16.25A145.37,145.37,0,0,1,157.93,7Z" style="fill:#008575;fill-rule:evenodd" />
    <path d="M157.2,24a131.64,131.64,0,0,1,126.59,95.54H30.62A131.63,131.63,0,0,1,157.2,24Z" style="fill:#0a94d6;fill-rule:evenodd" />
  </g>
  <g style="clip-path:url(#d)">
    <path d="M113.63,110.51h4l0,4.87-4,.05,0-4.92Zm-9.73,0,5.18,0,0,4.87-5.2,0,0-4.9Zm-26,0c6.36-.19,13.45,0,19.93,0,1.86,0,1.58-.3,1.56,1.56,0,1.08.05,2.25,0,3.32l-21.44.05,0-4.92Zm-9.73,0h5.19l0,4.87-5.2.06,0-4.92Zm-8.23,0,3.68,0,0,4.88-3.69,0,0-4.89Zm53.7-5.37a19.87,19.87,0,0,0,1.89,1.75c.66.53,1.69,1,2.17,1.47v1.24l-4,0,0-4.51Zm-9.17-1.8a32.24,32.24,0,0,0,3.33,3.6c1.61,1.36,1.33.24,1.32,2.65l-5.19.06c-.08-1.08,0-2.3,0-3.37,0-1.48-.3-2.11.57-2.94Zm-34.11-1.55,2.08,2c.26.23.63.39.81.66.31.49.17,4.27.12,5.17l-5.18.06c-.12-1.48-.06-3.51,0-5,0-1.15.55-1.08,1.51-2.16.33-.37.31-.44.7-.69ZM59.93,108.4l3.7-1.44v2.66l-3.69,0,0-1.26Zm18-7.52a19.9,19.9,0,0,0,2.65,4.19c1.56,2,2.53,2.08,3.68,3.14a23.06,23.06,0,0,1-6.39-1.94l.06-5.39Zm16.92,6.77c2.33-2.33,2-1.31,4.52-5l0,3.26a17.64,17.64,0,0,1-4.5,1.72Zm-34.93-.23c.09-.68,0-.51.5-.86a16.9,16.9,0,0,0,3.21-3.86l0,3.23a14.26,14.26,0,0,1-3.69,1.49Zm45.29-4.66a15.18,15.18,0,0,1,1.32-1.62,8.29,8.29,0,0,1,1.35-1.69,16.54,16.54,0,0,1,1.06,3.23,24.74,24.74,0,0,1,.17,4.13,11,11,0,0,1-3.9-4ZM46.14,131.09l-.09,35.78,24.49,0H263.86c-.26-1.12-.09-23.51-.09-26.71,0-2.81.18-6.26,0-9V106.06l-10.32,0,0-22.37-9.48,0,0,20.34h-1V94l-1-.09,0-1-3.6,0V84.43h-13V99.22H221V73.47H213.8l-.05-3.22h-3.57L210.12,67l-.78-.06,0,3.35h-3.63V94.49l-2.9.05-.06-6.81-2.05,0V56.54c0-1.14.19-4.2-.16-5.07A33.66,33.66,0,0,0,198.67,48a12.6,12.6,0,0,0-2,4.55c0,2.14.15,4.7,0,6.77h-13c-.09-2.19,0-4.47,0-6.62,0-1.27-1.27-3.68-2-4.71a14.68,14.68,0,0,0-1.66,3c-.59,1.16-.38,2.91-.38,4.47V75c0,3.17.13,6.6,0,9.74l-2.88,0v4.62h-1.7V73.49l-2.88,0L172,70H167l0-3c0-.68.17-.78-.83-.72V70h-4.95v3.46l-2.92,0v20c-.84.07-14.45.19-15.14,0-.47-.16-2.45-1.75-3-2.11-1,.48-2.3,1.69-3.35,2.31.43,1.12.59.13.57,2.2,0,4.77.26,16.64,0,19.6h-1.67l0-21.1H133.4l-.06-9.91-1,0c0-.9,0-1.81,0-2.72,0-1.4.1-1.25-.67-2l-4.06-4c-.78-.75-.56-.85-.55-2.24v-5.5l-.82,0c0,1.79,0,3.58,0,5.37,0,2.23.31,1.46-1.81,3.6-.94,1-1.78,1.8-2.73,2.73-.75.72-.76.55-.74,1.94,0,1,0,1.89,0,2.84l-1,.08,0,9.9h-2.3v13c-1-.17-2.25-1.6-2.89-2.17-1.46-1.29-1.18-1.69-1.18-4.14V90.28l-4.5,0v1.62l-5.17,0-.06-1.64-4.5,0v7.33c0,3.42.17,3.29-1.45,5.72-4.64,6.91-13,7.28-18-.54-.75-1.15-2.05-3.56-2.05-5.18,0-2.43,0-4.87,0-7.3l-4.51,0v1.62l-5.17,0-.06-1.64-4.5,0c0,3.23,0,6.47,0,9.7,0,2-2.9,5.47-3.71,5.84V96.4H49.79l0,10.28-2.65.06,0,.94-1,.07,0,23.34Z" style="fill:#fff;fill-rule:evenodd" />
  </g>
  <g style="clip-path:url(#a)">
    <path d="M157.2,24a131.64,131.64,0,0,1,126.59,95.54H30.62A131.63,131.63,0,0,1,157.2,24Z" style="fill:none;stroke:#fefefe;stroke-miterlimit:2.613126039505005;stroke-width:3.999969720840454px" />
  </g>
  <path d="M35.38,148.56c.2-4.42,1.26-7.31,6.2-7.31,3.59,0,5.33,2.31,5.33,6.64V151c-15.6,5.87-23.16,12.12-23.16,23.47,0,6.64,3.68,11.64,11,11.64,5.23,0,8.62-1.73,12.69-5,.1,1.25.49,2.6.59,4H58.45a36.94,36.94,0,0,1-.68-5.48V146.45c0-9.43-5.72-14-15.8-14s-16.86,5.68-17.44,16.16Zm11.53,23.86c-1.84,2.6-4.26,4.81-7.26,4.81-3.3,0-5-1.35-5-4.71,0-4.52,2.42-8.08,12.3-13.66v13.56Z" style="fill:#00669e" />
  <polygon points="79.67 185.12 79.67 123.27 68.81 123.27 68.81 185.12 79.67 185.12 79.67 185.12" style="fill:#00669e" />
  <path d="M123.38,151.06c-.2-11.06-4.66-18.66-16.87-18.66-12.4,0-16.86,7.89-16.86,19.24v15.2c0,11.35,4.46,19.24,16.86,19.24s16.87-7.89,16.87-19.24v-1.35H112.52v3.28c0,6-2.13,8.46-6,8.46s-6-2.5-6-8.46V149.72c0-6,2.13-8.47,6-8.47s6,2.5,6,8.47v1.34Z" style="fill:#00669e" />
  <path d="M155.55,168.77c0,6-2.13,8.46-6,8.46s-6-2.5-6-8.46V149.72c0-6,2.14-8.47,6-8.47s6,2.5,6,8.47v19.05Zm-22.87-1.93c0,11.35,4.46,19.24,16.86,19.24s16.86-7.89,16.86-19.24v-15.2c0-11.35-4.45-19.24-16.86-19.24s-16.86,7.89-16.86,19.24v15.2Z" style="fill:#00669e" />
  <path d="M205.27,146.16c-1.65-8.08-7.37-13.76-15.9-13.76-8.14,0-14.53,5.68-14.53,13.85,0,14.15,20.35,17.51,20.35,26.46,0,2.89-2,4.52-4.85,4.52-4.94,0-6.49-3.85-7.17-8.18l-9.5,2.6c1.65,9,7.08,14.43,16.57,14.43,8.82,0,15.22-4.71,15.22-14,0-15.39-20.35-18.66-20.35-26.74,0-2.7,1.94-4.14,4.75-4.14,3.49,0,5.42,2.31,6.2,6.45l9.21-1.54Z" style="fill:#00669e" />
  <path d="M223.68,148.56c.19-4.42,1.26-7.31,6.2-7.31,3.59,0,5.33,2.31,5.33,6.64V151c-15.6,5.87-23.16,12.12-23.16,23.47,0,6.64,3.68,11.64,11,11.64,5.23,0,8.62-1.73,12.69-5,.1,1.25.49,2.6.58,4h10.37a36.94,36.94,0,0,1-.68-5.48V146.45c0-9.43-5.71-14-15.79-14s-16.86,5.68-17.45,16.16Zm11.53,23.86c-1.84,2.6-4.26,4.81-7.27,4.81-3.29,0-5-1.35-5-4.71,0-4.52,2.43-8.08,12.31-13.66v13.56Z" style="fill:#00669e" />
  <path d="M267.87,185.12v-40.6c2.52-1.83,4.65-3.27,7-3.27s3.87,1.16,3.87,3.75v40.12h10.86V143.27c0-6.73-3.39-10.87-9.11-10.87-6.3,0-8.63,2.31-13.18,6.16v-5.2H257v51.76Z" style="fill:#00669e" />
  <path d="M28.67,197.42c0-.93.26-1.53,1.32-1.53.76,0,1.13.48,1.13,1.39v.65c-3.32,1.23-4.93,2.54-4.93,4.92a2.22,2.22,0,0,0,2.35,2.44,4,4,0,0,0,2.71-1c0,.27.1.55.12.85h2.21a7.84,7.84,0,0,1-.14-1.15v-7c0-2-1.22-2.95-3.37-2.95a3.38,3.38,0,0,0-3.72,3.39Zm2.45,5a2,2,0,0,1-1.55,1c-.7,0-1.07-.29-1.07-1,0-.95.52-1.7,2.62-2.87v2.85Zm7,2.66V190.52H35.79v14.57Zm4.59,0V190.52H40.38v14.57Zm4.44-6.86v-.57c0-1.25.45-1.77,1.28-1.77s1.28.52,1.28,1.77v.57Zm4.87-.16c0-2.38-1-4-3.59-4s-3.59,1.66-3.59,4v3.19c0,2.38,1,4,3.59,4S52,203.72,52,201.42H49.69v.24c0,1.25-.45,1.78-1.28,1.78s-1.28-.53-1.28-1.78v-1.57H52v-2Zm9.79-4c-1,0-1.28.28-1.9,1.17A3.21,3.21,0,0,0,57.33,194c-2.6,0-3.59,1-3.59,4,0,2.54.33,3.1,1.49,3.89-.62.34-1.41,1-1.41,1.76a1.43,1.43,0,0,0,1,1.37v0a1.84,1.84,0,0,0-1.5,1.7c0,1.13,1.36,1.73,3.67,1.73,3,0,4.75-.72,4.75-2.58,0-3.84-5.95-1.66-5.95-3.13a.54.54,0,0,1,.46-.5H57c2.36,0,3.51-1.05,3.51-4.36a7.09,7.09,0,0,0-.24-1.72,1.7,1.7,0,0,1,1.11-.34,2.3,2.3,0,0,1,.37,0V194Zm-4,12.88c-1.55,0-2-.25-2-.81s.42-.81,2-.81,2,.24,2,.81-.42.81-2,.81Zm-.69-6.46c-.74,0-1.15-.45-1.15-2.28s.41-2.28,1.15-2.28c.91,0,1.16.44,1.16,2.28s-.25,2.28-1.16,2.28Zm8.51,4.64v-8.52a2.76,2.76,0,0,1,1.49-.68.73.73,0,0,1,.83.78v8.42h2.31v-8.78c0-1.41-.72-2.28-1.94-2.28a3.5,3.5,0,0,0-2.69,1.21v-4.72H63.28v14.57Zm9-6.86v-.57c0-1.25.45-1.77,1.28-1.77s1.28.52,1.28,1.77v.57Zm4.87-.16c0-2.38-1-4-3.59-4s-3.59,1.66-3.59,4v3.19c0,2.38,1,4,3.59,4s3.55-1.57,3.59-3.87H77.2v.24c0,1.25-.45,1.78-1.28,1.78s-1.28-.53-1.28-1.78v-1.57h4.87v-2Zm4.42,7v-8.52a2.76,2.76,0,0,1,1.49-.68.73.73,0,0,1,.83.78v8.42h2.31v-8.78c0-1.41-.72-2.28-1.94-2.28a3.75,3.75,0,0,0-2.81,1.29v-1.09H81.62v10.86Zm9.83-3.9h0l-1.49-7H89.88l2.42,9.24a5.69,5.69,0,0,1,.24,1.44c0,1.15-.37,1.75-1.52,1.75h-.56v1.86h1c1.73,0,2.66-.62,3.16-2.6l2.91-11.69H95.17l-1.41,7ZM110.47,198c0-2.33-1-3.92-3.59-3.92s-3.6,1.66-3.6,4v3.19c0,2.38,1,4,3.6,4s3.59-1.65,3.59-4V201h-2.31v.69c0,1.25-.46,1.78-1.28,1.78s-1.28-.53-1.28-1.78v-4c0-1.25.45-1.77,1.28-1.77s1.28.52,1.28,1.77V198Zm6.86,3.71c0,1.25-.46,1.78-1.28,1.78s-1.28-.53-1.28-1.78v-4c0-1.25.45-1.77,1.28-1.77s1.28.52,1.28,1.77v4Zm-4.88-.4c0,2.38,1,4,3.6,4s3.59-1.65,3.59-4v-3.19c0-2.38-1-4-3.59-4s-3.6,1.66-3.6,4v3.19Zm13.92-7v8.52a2.75,2.75,0,0,1-1.48.69.73.73,0,0,1-.83-.79v-8.42h-2.31V203c0,1.41.72,2.28,1.94,2.28A3.75,3.75,0,0,0,126.5,204v1.09h2.19V194.23Zm6.86,10.86v-8.52a2.76,2.76,0,0,1,1.49-.68.72.72,0,0,1,.82.78v8.42h2.32v-8.78c0-1.41-.73-2.28-1.94-2.28a3.73,3.73,0,0,0-2.81,1.29v-1.09h-2.19v10.86Zm7.23-9v6.76c0,1.66,1,2.44,2.71,2.44a4.09,4.09,0,0,0,1.15-.12v-1.94h-.76c-.54,0-.79-.32-.79-.88v-6.26h1.55v-1.86h-1.55v-2.92h-2.31v2.92h-1.28v1.86Zm8.34,5.1h0l-1.48-7h-2.36l2.42,9.24a5.69,5.69,0,0,1,.24,1.44c0,1.15-.37,1.75-1.52,1.75h-.56v1.86h1c1.73,0,2.66-.62,3.16-2.6l2.91-11.69h-2.33l-1.41,7Zm15.82-4.27a3.36,3.36,0,0,0-3.38-2.89,2.92,2.92,0,0,0-3.1,2.91c0,3,4.34,3.67,4.34,5.55a.94.94,0,0,1-1,.95c-1.05,0-1.38-.81-1.53-1.72l-2,.54a3.33,3.33,0,0,0,3.53,3c1.88,0,3.24-1,3.24-2.92,0-3.23-4.33-3.92-4.33-5.62,0-.56.41-.86,1-.86s1.16.48,1.32,1.35l2-.32Zm3.93.5c0-.93.27-1.53,1.32-1.53.76,0,1.14.48,1.14,1.39v.65c-3.33,1.23-4.94,2.54-4.94,4.92a2.22,2.22,0,0,0,2.35,2.44,4,4,0,0,0,2.71-1c0,.27.1.55.12.85h2.21a7.84,7.84,0,0,1-.14-1.15v-7c0-2-1.22-2.95-3.37-2.95a3.38,3.38,0,0,0-3.72,3.39Zm2.46,5a2.06,2.06,0,0,1-1.55,1c-.71,0-1.08-.29-1.08-1,0-.95.52-1.7,2.63-2.87v2.85Zm7,2.66v-8.52a2.73,2.73,0,0,1,1.48-.68.73.73,0,0,1,.83.78v8.42h2.31v-8.78c0-1.41-.72-2.28-1.94-2.28a3.75,3.75,0,0,0-2.81,1.29v-1.09h-2.19v10.86Zm9.19,0V194.23h-2.32v10.86Zm0-12.51v-2.06h-2.32v2.06Zm2.62,3.51v6.76c0,1.66,1,2.44,2.7,2.44a4.13,4.13,0,0,0,1.16-.12v-1.94h-.76c-.54,0-.79-.32-.79-.88v-6.26h1.55v-1.86h-1.55v-2.92h-2.31v2.92H188.5v1.86Zm7.43,1.33c0-.93.27-1.53,1.33-1.53.76,0,1.13.48,1.13,1.39v.65c-3.32,1.23-4.93,2.54-4.93,4.92a2.22,2.22,0,0,0,2.35,2.44,4,4,0,0,0,2.71-1c0,.27.1.55.12.85h2.21a7.89,7.89,0,0,1-.15-1.15v-7c0-2-1.21-2.95-3.36-2.95a3.37,3.37,0,0,0-3.72,3.39Zm2.46,5a2,2,0,0,1-1.55,1c-.7,0-1.07-.29-1.07-1,0-.95.51-1.7,2.62-2.87v2.85Zm7,2.66v-7.47a1.44,1.44,0,0,1,1.55-1.45,5.47,5.47,0,0,1,1.49.22V194h-.48a3,3,0,0,0-2.62,1.47h0v-1.27h-2.21v10.86Zm7.54-3.9h0l-1.49-7h-2.35l2.41,9.24a5.32,5.32,0,0,1,.25,1.44c0,1.15-.37,1.75-1.53,1.75h-.55v1.86h1c1.73,0,2.66-.62,3.16-2.6l2.91-11.69h-2.34l-1.4,7Zm11.71-3.77c0-.93.27-1.53,1.32-1.53.77,0,1.14.48,1.14,1.39v.65c-3.33,1.23-4.94,2.54-4.94,4.92a2.23,2.23,0,0,0,2.36,2.44,4,4,0,0,0,2.7-1c0,.27.1.55.13.85h2.21a6.72,6.72,0,0,1-.15-1.15v-7c0-2-1.22-2.95-3.37-2.95a3.37,3.37,0,0,0-3.71,3.39Zm2.46,5a2,2,0,0,1-1.55,1c-.7,0-1.08-.29-1.08-1,0-.95.52-1.7,2.63-2.87v2.85Zm9.27-8.2v8.52a2.78,2.78,0,0,1-1.49.69.73.73,0,0,1-.82-.79v-8.42H233V203c0,1.41.73,2.28,2,2.28a3.72,3.72,0,0,0,2.8-1.29v1.09h2.19V194.23Zm4.92,1.86v6.76c0,1.66,1,2.44,2.7,2.44a4.13,4.13,0,0,0,1.16-.12v-1.94h-.77c-.53,0-.78-.32-.78-.88v-6.26h1.55v-1.86h-1.55v-2.92h-2.31v2.92h-1.28v1.86Zm7.68,9v-8.52a2.76,2.76,0,0,1,1.49-.68.72.72,0,0,1,.82.78v8.42h2.32v-8.78c0-1.41-.73-2.28-2-2.28a3.48,3.48,0,0,0-2.68,1.21v-4.72H247.9v14.57Zm11.61-3.43c0,1.25-.46,1.78-1.28,1.78s-1.28-.53-1.28-1.78v-4c0-1.25.45-1.77,1.28-1.77s1.28.52,1.28,1.77v4Zm-4.88-.4c0,2.38.95,4,3.6,4s3.59-1.65,3.59-4v-3.19c0-2.38-.95-4-3.59-4s-3.6,1.66-3.6,4v3.19Zm11.61,3.83v-7.47a1.44,1.44,0,0,1,1.55-1.45,5.47,5.47,0,0,1,1.49.22V194h-.48a3,3,0,0,0-2.62,1.47h0v-1.27h-2.21v10.86Zm6.9,0V194.23h-2.32v10.86Zm0-12.51v-2.06h-2.32v2.06Zm2.62,3.51v6.76c0,1.66,1,2.44,2.71,2.44a4.09,4.09,0,0,0,1.15-.12v-1.94h-.76c-.54,0-.79-.32-.79-.88v-6.26h1.55v-1.86h-1.55v-2.92h-2.31v2.92h-1.28v1.86Zm8.34,5.1h0l-1.48-7h-2.36l2.42,9.24a5.74,5.74,0,0,1,.25,1.44c0,1.15-.38,1.75-1.53,1.75h-.56v1.86h1c1.73,0,2.66-.62,3.16-2.6l2.91-11.69h-2.33l-1.41,7Z" style="fill:#008575" />
</svg>